HIERARCHY
ROOT Hips
{
	OFFSET 0.000000 89.005402 0.000000
	CHANNELS 6 Xposition Yposition Zposition Xrotation Yrotation Zrotation
	JOINT Spine
	{
		OFFSET 0.116900 10.681000 0.373400
		CHANNELS 3 Xrotation Yrotation Zrotation
		JOINT Spine1
		{
			OFFSET 0.000000 13.840401 0.053500
			CHANNELS 3 Xrotation Yrotation Zrotation
			JOINT Spine2
			{
				OFFSET 0.000000 14.712700 -0.366200
				CHANNELS 3 Xrotation Yrotation Zrotation
				JOINT Neck
				{
					OFFSET 0.000000 35.415497 -3.314200
					CHANNELS 3 Xrotation Yrotation Zrotation
					JOINT Head
					{
						OFFSET 0.000000 16.899200 1.218300
						CHANNELS 3 Xrotation Yrotation Zrotation
						JOINT HeadTop_End
						{
							OFFSET 0.000000 22.206207 2.192500
							CHANNELS 3 Xrotation Yrotation Zrotation
							End Site
							{
								OFFSET 0.000000 22.314178 0.000000
							}
						}
					}
				}
				JOINT LeftShoulder
				{
					OFFSET 12.896400 26.716293 -4.548400
					CHANNELS 3 Xrotation Yrotation Zrotation
					JOINT LeftArm
					{
						OFFSET 19.027000 -4.857010 -1.718400
						CHANNELS 3 Xrotation Yrotation Zrotation
						JOINT LeftForeArm
						{
							OFFSET 24.179897 0.000000 0.000000
							CHANNELS 3 Xrotation Yrotation Zrotation
							JOINT LeftHand
							{
								OFFSET 27.156403 0.000000 0.000000
								CHANNELS 3 Xrotation Yrotation Zrotation
								JOINT LeftHandIndex1
								{
									OFFSET 16.441200 0.000000 0.000000
									CHANNELS 3 Xrotation Yrotation Zrotation
									JOINT LeftHandIndex2
									{
										OFFSET 4.821899 0.000000 0.000000
										CHANNELS 3 Xrotation Yrotation Zrotation
										JOINT LeftHandIndex3
										{
											OFFSET 6.386497 0.000000 0.000000
											CHANNELS 3 Xrotation Yrotation Zrotation
											JOINT LeftHandIndex4
											{
												OFFSET 5.188988 0.000000 0.000000
												CHANNELS 3 Xrotation Yrotation Zrotation
												End Site
												{
													OFFSET -0.178703 5.185913 0.000177
												}
											}
										}
									}
								}
								JOINT LeftHandThumb1
								{
									OFFSET 6.534897 -5.032593 5.900300
									CHANNELS 3 Xrotation Yrotation Zrotation
									JOINT LeftHandThumb2
									{
										OFFSET 3.818176 -2.204422 2.204423
										CHANNELS 3 Xrotation Yrotation Zrotation
										JOINT LeftHandThumb3
										{
											OFFSET 3.252098 -1.877594 1.877601
											CHANNELS 3 Xrotation Yrotation Zrotation
											JOINT LeftHandThumb4
											{
												OFFSET 5.251778 -3.032120 3.032117
												CHANNELS 3 Xrotation Yrotation Zrotation
												End Site
												{
													OFFSET 0.000023 6.780014 0.000000
												}
											}
										}
									}
								}
							}
						}
					}
				}
				JOINT RightShoulder
				{
					OFFSET -12.896300 26.716293 -4.548400
					CHANNELS 3 Xrotation Yrotation Zrotation
					JOINT RightArm
					{
						OFFSET -19.027000 -4.857010 -1.718400
						CHANNELS 3 Xrotation Yrotation Zrotation
						JOINT RightForeArm
						{
							OFFSET -24.179897 0.000000 0.000000
							CHANNELS 3 Xrotation Yrotation Zrotation
							JOINT RightHand
							{
								OFFSET -27.156403 0.000000 0.000000
								CHANNELS 3 Xrotation Yrotation Zrotation
								JOINT RightHandThumb1
								{
									OFFSET -6.591202 -4.852203 5.988100
									CHANNELS 3 Xrotation Yrotation Zrotation
									JOINT RightHandThumb2
									{
										OFFSET -3.818176 -2.204422 2.204423
										CHANNELS 3 Xrotation Yrotation Zrotation
										JOINT RightHandThumb3
										{
											OFFSET -3.252098 -1.877594 1.877601
											CHANNELS 3 Xrotation Yrotation Zrotation
											JOINT RightHandThumb4
											{
												OFFSET -5.251778 -3.032120 3.032117
												CHANNELS 3 Xrotation Yrotation Zrotation
												End Site
												{
													OFFSET -0.000023 6.780014 0.000000
												}
											}
										}
									}
								}
								JOINT RightHandIndex1
								{
									OFFSET -16.029404 0.000000 0.000000
									CHANNELS 3 Xrotation Yrotation Zrotation
									JOINT RightHandIndex2
									{
										OFFSET -5.213303 0.000000 0.000000
										CHANNELS 3 Xrotation Yrotation Zrotation
										JOINT RightHandIndex3
										{
											OFFSET -6.386528 0.000000 0.000000
											CHANNELS 3 Xrotation Yrotation Zrotation
											JOINT RightHandIndex4
											{
												OFFSET -5.189026 0.000000 0.000000
												CHANNELS 3 Xrotation Yrotation Zrotation
												End Site
												{
													OFFSET 0.236702 5.183624 0.001972
												}
											}
										}
									}
								}
							}
						}
					}
				}
			}
		}
	}
	JOINT LeftUpLeg
	{
		OFFSET 14.073000 -7.904099 -1.463000
		CHANNELS 3 Xrotation Yrotation Zrotation
		JOINT LeftLeg
		{
			OFFSET -0.109806 -34.073280 4.093200
			CHANNELS 3 Xrotation Yrotation Zrotation
			JOINT LeftFoot
			{
				OFFSET 0.109806 -29.899420 -6.319000
				CHANNELS 3 Xrotation Yrotation Zrotation
				JOINT LeftToeBase
				{
					OFFSET 1.551100 -14.988700 20.535801
					CHANNELS 3 Xrotation Yrotation Zrotation
					JOINT LeftToe_End
					{
						OFFSET 0.221200 0.570800 13.248301
						CHANNELS 3 Xrotation Yrotation Zrotation
						End Site
						{
							OFFSET 0.000000 13.262435 0.000000
						}
					}
				}
			}
		}
	}
	JOINT RightUpLeg
	{
		OFFSET -13.839300 -7.904099 -1.463000
		CHANNELS 3 Xrotation Yrotation Zrotation
		JOINT RightLeg
		{
			OFFSET 0.109694 -34.073219 4.093300
			CHANNELS 3 Xrotation Yrotation Zrotation
			JOINT RightFoot
			{
				OFFSET -0.109694 -29.899384 -6.319200
				CHANNELS 3 Xrotation Yrotation Zrotation
				JOINT RightToeBase
				{
					OFFSET -1.551100 -14.988700 20.535801
					CHANNELS 3 Xrotation Yrotation Zrotation
					JOINT RightToe_End
					{
						OFFSET -0.221200 0.570900 13.248299
						CHANNELS 3 Xrotation Yrotation Zrotation
						End Site
						{
							OFFSET 0.000000 13.262440 0.000000
						}
					}
				}
			}
		}
	}
}
MOTION
Frames: 4
Frame Time: 0.033333
-0.325685 75.560127 -1.884890 -12.436556 -38.150503 -7.364961 12.868795 1.686254 -0.504636 9.265098 1.651464 -0.339676 9.263266 1.661583 -0.350094 12.902138 2.215021 -2.721419 -4.011153 13.208020 -5.240474 -0.000001 -0.000001 -0.000001 1.984421 -11.749870 -8.113419 -51.006579 -9.593381 -59.225561 -0.000064 -105.561195 -0.000052 9.898293 -15.979446 31.220965 0.255312 3.378216 -45.814351 5.654093 5.847757 -88.067448 2.162136 4.544814 -50.866369 -0.000000 0.000001 -0.000000 -6.141201 -11.690801 -6.761676 9.914107 42.595522 3.409874 -0.422812 8.108078 27.509091 -0.000001 0.000001 -0.000002 7.360980 0.336834 4.031994 -74.213823 28.220542 89.358962 0.000200 75.465394 -0.000197 18.213119 24.297698 -15.457555 -7.341090 13.749666 7.412319 9.855755 -44.489110 -3.903273 -0.115784 -14.513080 -28.973867 0.000000 -0.000001 0.000000 -0.124370 -2.384782 45.108857 4.500580 -4.654547 88.071157 1.723228 -3.618382 50.920112 -0.000003 0.000003 0.000004 -25.620692 3.275068 22.035532 48.747224 -10.760906 1.189599 -16.527528 -10.998170 -15.140735 -1.594028 -0.000000 -0.000004 -0.000000 -0.000000 -0.000000 -6.622023 -22.426076 -25.071644 47.288255 -6.638813 -9.176541 -25.632952 -10.902949 24.831235 -0.013002 -0.000005 -0.000002 0.000000 0.000000 -0.000000 
0.290755 75.017014 -1.904288 -11.486649 -37.992760 -6.869414 13.663279 1.707225 -1.066150 9.781791 1.699068 -0.712816 9.778700 1.714382 -0.725752 13.531805 2.170639 -3.492233 -3.699216 13.106012 -6.207048 -0.000002 -0.000001 0.000001 2.103494 -12.466177 -7.744673 -53.655395 -9.677990 -57.748724 0.000169 -99.676413 0.000190 7.337073 -17.008464 29.842766 0.255312 3.378216 -45.814358 5.654095 5.847759 -88.067448 2.162138 4.544816 -50.866372 0.000000 -0.000002 -0.000001 -6.141205 -11.690801 -6.761676 9.914106 42.595529 3.409873 -0.422812 8.108080 27.509092 0.000001 0.000003 -0.000001 7.011403 0.666426 2.030861 -76.731923 27.359228 90.485424 0.000074 69.234049 -0.000070 17.782560 25.880881 -16.862315 -7.341089 13.749665 7.412319 9.855752 -44.489107 -3.903276 -0.115785 -14.513080 -28.973867 -0.000001 -0.000001 -0.000001 -0.124368 -2.384785 45.108861 4.500577 -4.654547 88.071157 1.723228 -3.618378 50.920112 -0.000001 0.000000 -0.000002 -27.766386 2.514070 21.942481 50.616575 -10.798731 0.679991 -16.723144 -11.106432 -14.414122 -1.594028 -0.000002 -0.000004 0.000000 -0.000000 -0.000000 -8.529378 -22.048873 -25.814893 48.863651 -6.485299 -9.141377 -25.840614 -11.031119 25.114215 -0.013002 -0.000004 -0.000003 0.000000 0.000001 -0.000000 
0.763257 74.413483 -1.873743 -11.048986 -37.880776 -6.514426 14.241845 1.758631 -1.486387 10.167773 1.775811 -1.017301 10.164001 1.792930 -1.032204 14.107808 2.073222 -4.226855 -3.237717 12.736991 -7.171880 0.000001 -0.000002 0.000001 2.223659 -13.204383 -7.450441 -56.063176 -9.988210 -56.276927 -0.001278 -94.301000 -0.001358 4.368594 -17.709077 29.130716 0.255312 3.378216 -45.814354 5.654093 5.847759 -88.067448 2.162139 4.544815 -50.866376 -0.000000 -0.000001 -0.000002 -6.141203 -11.690802 -6.761676 9.914106 42.595525 3.409872 -0.422813 8.108087 27.509092 0.000000 -0.000000 -0.000002 6.724638 1.224038 -0.077518 -79.411850 26.583398 91.540258 -0.000031 63.328414 0.000018 17.157565 27.195969 -17.902354 -7.341089 13.749663 7.412316 9.855752 -44.489110 -3.903272 -0.115786 -14.513076 -28.973867 -0.000000 -0.000001 -0.000001 -0.124373 -2.384781 45.108861 4.500585 -4.654549 88.071157 1.723227 -3.618380 50.920116 -0.000003 -0.000000 -0.000001 -29.354780 2.009739 21.881349 52.468475 -10.837948 0.109704 -17.105010 -11.352439 -13.730610 -1.594028 -0.000003 -0.000004 -0.000000 0.000002 0.000000 -10.072612 -21.726427 -26.877008 50.583216 -6.307482 -9.100910 -26.318949 -11.004840 25.470781 -0.013002 -0.000005 -0.000002 -0.000000 -0.000000 0.000000 
1.078881 73.923325 -1.873687 -10.931840 -37.915077 -6.360379 14.606354 1.795713 -1.773334 10.396951 1.833248 -1.238081 10.392899 1.850169 -1.254383 14.525292 1.974261 -4.904415 -2.912638 12.311242 -8.005356 -0.000005 0.000000 0.000001 2.323174 -13.735860 -7.137853 -58.082624 -9.857758 -54.924140 0.130050 -90.471224 0.130002 1.582700 -18.168209 28.469270 0.255313 3.378221 -45.814351 5.654093 5.847757 -88.067448 2.162137 4.544815 -50.866376 -0.000000 0.000004 -0.000001 -6.141203 -11.690802 -6.761676 9.914107 42.595529 3.409875 -0.422813 8.108078 27.509089 0.000000 0.000003 0.000000 6.650357 2.208397 -2.024418 -82.039540 26.200642 92.364928 0.000004 59.030771 -0.000012 16.544084 28.079871 -18.584280 -7.341091 13.749660 7.412319 9.855749 -44.489110 -3.903274 -0.115783 -14.513080 -28.973867 -0.000000 -0.000001 -0.000000 -0.124375 -2.384784 45.108861 4.500578 -4.654548 88.071157 1.723233 -3.618378 50.920116 0.000003 0.000003 0.000002 -30.403716 1.850847 22.058296 53.866622 -10.870271 -0.415764 -17.428271 -11.744984 -13.208546 -1.594028 -0.000003 -0.000004 -0.000000 -0.000000 -0.000000 -11.146274 -21.368008 -27.706046 52.007649 -6.165239 -9.068796 -26.781020 -10.935022 25.716825 -0.013002 -0.000005 -0.000003 -0.000000 0.000001 -0.000000 
